{"title":"Taken 3 2015 READNFO 720p HDRip x264 AAC Pimp4003","uid":11674483,"size":1867078996,"categoryP":"video","categoryS":"hd___movies","magnet":"?xt=urn:btih:cf872c5607654d9359b36f700c01d5a536d0434b&amp;dn=Taken+3+2015+READNFO+720p+HDRip+x264+AAC+Pimp4003&amp;tr=udp%3A%2F%2Ftracker.openbittorrent.com%3A80&amp;tr=udp%3A%2F%2Fopen.demonii.com%3A1337&amp;tr=udp%3A%2F%2Ftracker.coppersurfer.tk%3A6969&amp;tr=udp%3A%2F%2Fexodus.desync.com%3A6969","seeders":40,"leechers":0,"uploader":"shawnmurthy","files":1,"time":1422798419,"description":"SCREENSHOTS GO\n\n[img]http://i.imgur.com/SpsuXOR.png[/img]\n\nPIMP THE ONE AND ONLY PIMPSTER.....PRESENTS\n\nTaken 3 2015 READNFO 720p HDRip x264 AAC Pimp4003\n &lt;a href=&quot;\nhttp://www.imdb.com/title/tt2446042/&quot; rel=&quot;nofollow&quot; target=&quot;_NEW&quot;&gt;\nhttp://www.imdb.com/title/tt2446042/&lt;/a&gt;\n\nEx-government operative Bryan Mills is accused of a ruthless murder he never committed or witnessed. As he is tracked and pursued, Mills brings out his particular set of skills to find the true killer and clear his name.\n\nDirector: Olivier Megaton\nWriters: Luc Besson, Robert Mark Kamen\nStars: Liam Neeson, Forest Whitaker, Maggie Grace | See full cast and crew Â»\n\nVideo\nID : 1\nFormat : AVC\nFormat/Info : Advanced Video Codec\nFormat profile : &lt;a class=&quot;__cf_email__&quot; href=&quot;/cdn-cgi/l/email-protection&quot; data-cfemail=&quot;692408000729255d4759&quot;&gt;[email&amp;#160;protected]&lt;/a&gt;&lt;script cf-hash='f9e31' type=&quot;text/javascript&quot;&gt;\n/* &lt;![CDATA[ */!function(){try{var t=&quot;currentScript&quot;in document?document.currentScript:function(){for(var t=document.getElementsByTagName(&quot;script&quot;),e=t.length;e--;)if(t[e].getAttribute(&quot;cf-hash&quot;))return t[e]}();if(t&amp;&amp;t.previousSibling){var e,r,n,i,c=t.previousSibling,a=c.getAttribute(&quot;data-cfemail&quot;);if(a){for(e=&quot;&quot;,r=parseInt(a.substr(0,2),16),n=2;a.length-n;n+=2)i=parseInt(a.substr(n,2),16)^r,e+=String.fromCharCode(i);e=document.createTextNode(e),c.parentNode.replaceChild(e,c)}}}catch(u){}}();/* ]]&gt; */&lt;/script&gt;\nFormat settings, CABAC : Yes\nFormat settings, ReFrames : 4 frames\nCodec ID : avc1\nCodec ID/Info : Advanced Video Coding\nDuration : 1h 44mn\nBit rate : 2 228 Kbps\nWidth : 1 280 pixels\nHeight : 544 pixels\nDisplay aspect ratio : 2.35:1\nFrame rate mode : Constant\nFrame rate : 25.000 fps\nColor space : YUV\nChroma subsampling : 4:2:0\nBit depth : 8 bits\nScan type : Progressive\nBits/(Pixel*Frame) : 0.128\nStream size : 1.62 GiB (93%)\nWriting library : x264 core 130 r2273 b3065e6\nEncoding settings : cabac=1 / ref=1 / deblock=1:0:0 / analyse=0x1:0x111 / me=hex / subme=2 / psy=1 / psy_rd=1.00:0.00 / mixed_ref=0 / me_range=16 / chroma_me=1 / trellis=0 / 8x8dct=0 / cqm=0 / deadzone=21,11 / fast_pskip=1 / chroma_qp_offset=0 / threads=3 / lookahead_threads=1 / sliced_threads=0 / nr=0 / decimate=1 / interlaced=0 / bluray_compat=0 / constrained_intra=0 / bframes=3 / b_pyramid=2 / b_adapt=1 / b_bias=0 / direct=1 / weightb=1 / open_gop=0 / weightp=1 / keyint=250 / keyint_min=25 / scenecut=40 / intra_refresh=0 / rc_lookahead=10 / rc=crf / mbtree=1 / crf=20.0 / qcomp=0.60 / qpmin=0 / qpmax=69 / qpstep=4 / vbv_maxrate=20000 / vbv_bufsize=25000 / crf_max=0.0 / nal_hrd=none / ip_ratio=1.40 / aq=1:1.00\nEncoded date : UTC 2015-01-28 08:22:26\nTagged date : UTC 2015-01-28 11:02:27\nColor primaries : BT.709\nTransfer characteristics : BT.709\nMatrix coefficients : BT.709\n\nAudio\nID : 2\nFormat : AAC\nFormat/Info : Advanced Audio Codec\nFormat profile : LC\nCodec ID : 40\nDuration : 1h 44mn\nBit rate mode : Variable\nBit rate : 160 Kbps\nMaximum bit rate : 235 Kbps\nChannel(s) : 2 channels\nChannel positions : Front: L R\nSampling rate : 48.0 KHz\nCompression mode : Lossy\nStream size : 119 MiB (7%)\nLanguage : English\nEncoded date : UTC 2015-01-28 08:22:26\nTagged date : UTC 2015-01-28 11:02:27","torrent":{"xt":"urn:btih:cf872c5607654d9359b36f700c01d5a536d0434b","amp;dn":"Taken+3+2015+READNFO+720p+HDRip+x264+AAC+Pimp4003","amp;tr":["udp%3A%2F%2Ftracker.openbittorrent.com%3A80","udp%3A%2F%2Fopen.demonii.com%3A1337","udp%3A%2F%2Ftracker.coppersurfer.tk%3A6969","udp%3A%2F%2Fexodus.desync.com%3A6969"],"infoHash":"cf872c5607654d9359b36f700c01d5a536d0434b","infoHashBuffer":{"type":"Buffer","data":[207,135,44,86,7,101,77,147,89,179,111,112,12,1,213,165,54,208,67,75]},"announce":[],"urlList":[]}}